<svg xmlns="http://www.w3.org/2000/svg" width="79" height="79" viewBox="0 0 79 79">
  <g id="Instagram" transform="translate(-0.227)">
    <g id="Icon" transform="translate(25.227 26)">
      <path id="Fill_4" data-name="Fill 4" d="M13.232,26.463c-3.571,0-4.041-.015-5.456-.079a9.78,9.78,0,0,1-3.212-.614,6.51,6.51,0,0,1-2.345-1.528A6.5,6.5,0,0,1,.694,21.9a9.78,9.78,0,0,1-.615-3.212C.015,17.292,0,16.826,0,13.232s.015-4.06.079-5.456A9.778,9.778,0,0,1,.694,4.564,6.536,6.536,0,0,1,2.219,2.219,6.555,6.555,0,0,1,4.564.694,9.778,9.778,0,0,1,7.776.079C9.191.015,9.661,0,13.232,0s4.041.015,5.455.079A9.778,9.778,0,0,1,21.9.694a6.76,6.76,0,0,1,3.871,3.87,9.78,9.78,0,0,1,.614,3.212c.065,1.4.079,1.828.079,5.456s-.014,4.052-.079,5.455A9.782,9.782,0,0,1,25.77,21.9,6.778,6.778,0,0,1,21.9,25.77a9.78,9.78,0,0,1-3.212.614C17.273,26.448,16.8,26.463,13.232,26.463Zm0-24.079c-3.533,0-3.951.014-5.347.077a7.323,7.323,0,0,0-2.458.456,4.09,4.09,0,0,0-1.521.989,4.11,4.11,0,0,0-.989,1.521,7.323,7.323,0,0,0-.456,2.458C2.4,9.28,2.383,9.7,2.383,13.232s.014,3.951.077,5.346a7.31,7.31,0,0,0,.456,2.458,4.11,4.11,0,0,0,.989,1.521,4.1,4.1,0,0,0,1.521.99A7.4,7.4,0,0,0,7.885,24c1.377.063,1.793.076,5.347.076S17.2,24.065,18.58,24a7.377,7.377,0,0,0,2.456-.455,4.386,4.386,0,0,0,2.511-2.511A7.31,7.31,0,0,0,24,18.578c.065-1.411.078-1.832.078-5.346S24.067,9.3,24,7.885a7.323,7.323,0,0,0-.455-2.458,4.1,4.1,0,0,0-.99-1.521,4.09,4.09,0,0,0-1.521-.989,7.3,7.3,0,0,0-2.456-.456C17.185,2.4,16.767,2.383,13.232,2.383Z" transform="translate(0 0)" fill="#f5a055"/>
      <path id="Fill_6" data-name="Fill 6" d="M6.8,13.589A6.795,6.795,0,1,1,13.589,6.8,6.8,6.8,0,0,1,6.8,13.589Zm0-11.206A4.411,4.411,0,1,0,11.2,6.8,4.416,4.416,0,0,0,6.8,2.383Z" transform="translate(6.437 6.437)" fill="#f5a055"/>
      <path id="Fill_8" data-name="Fill 8" d="M3.176,1.588A1.588,1.588,0,1,1,1.588,0,1.588,1.588,0,0,1,3.176,1.588" transform="translate(18.706 4.58)" fill="#f5a055"/>
    </g>
    <g id="Oval" transform="translate(0.227)" fill="none" stroke="#f5a055" stroke-miterlimit="10" stroke-width="3.5">
      <circle cx="39.5" cy="39.5" r="39.5" stroke="none"/>
      <circle cx="39.5" cy="39.5" r="37.75" fill="none"/>
    </g>
  </g>
</svg>
