<svg xmlns="http://www.w3.org/2000/svg" width="79" height="79" viewBox="0 0 79 79">
  <g id="Twitter" transform="translate(-0.932)">
    <path id="Fill_4" data-name="Fill 4" d="M26,2.367a11.1,11.1,0,0,1-3.063.794A5.112,5.112,0,0,0,25.283.37a11.006,11.006,0,0,1-3.388,1.223A5.472,5.472,0,0,0,18,0a5.2,5.2,0,0,0-5.332,5.048,4.772,4.772,0,0,0,.137,1.15A15.445,15.445,0,0,1,1.81.923a4.846,4.846,0,0,0-.722,2.539,4.982,4.982,0,0,0,2.373,4.2,5.564,5.564,0,0,1-2.417-.63V7.1a5.128,5.128,0,0,0,4.281,4.95,5.493,5.493,0,0,1-1.406.178,5.57,5.57,0,0,1-1-.09,5.3,5.3,0,0,0,4.981,3.5A11.086,11.086,0,0,1,1.273,17.8,11.555,11.555,0,0,1,0,17.732,15.751,15.751,0,0,0,8.177,20c9.813,0,15.177-7.693,15.177-14.365,0-.22,0-.439-.014-.653A10.519,10.519,0,0,0,26,2.367" transform="translate(28.932 30)" fill="#f5a055"/>
    <g id="Oval" transform="translate(0.932)" fill="none" stroke="#f5a055" stroke-miterlimit="10" stroke-width="3.5">
      <circle cx="39.5" cy="39.5" r="39.5" stroke="none"/>
      <circle cx="39.5" cy="39.5" r="37.75" fill="none"/>
    </g>
  </g>
</svg>
