<svg xmlns="http://www.w3.org/2000/svg" width="79" height="79" viewBox="0 0 79 79">
  <g id="YouTube" transform="translate(-0.08)">
    <path id="Fill_4" data-name="Fill 4" d="M22.291,22H3.71A3.7,3.7,0,0,1,0,18.325V14.571a3.649,3.649,0,0,1,1.092-2.6A3.693,3.693,0,0,1,3.71,10.883H22.291a3.692,3.692,0,0,1,2.617,1.085A3.65,3.65,0,0,1,26,14.571v3.754A3.7,3.7,0,0,1,22.291,22Zm-2.948-7.753a1.8,1.8,0,0,0-1.3.481,1.648,1.648,0,0,0-.512,1.247v2.634a1.9,1.9,0,0,0,.457,1.339,1.628,1.628,0,0,0,1.26.48,1.729,1.729,0,0,0,1.322-.455,1.845,1.845,0,0,0,.46-1.364v-.3H19.8v.273a1.189,1.189,0,0,1-.118.662.467.467,0,0,1-.406.157.429.429,0,0,1-.4-.182,1.186,1.186,0,0,1-.107-.636v-1.1h2.268V15.974a1.739,1.739,0,0,0-.446-1.273A1.651,1.651,0,0,0,19.343,14.247Zm-10.105.142v4.922a1.265,1.265,0,0,0,.2.778.763.763,0,0,0,.629.273,1.408,1.408,0,0,0,.683-.194,2.219,2.219,0,0,0,.68-.545v.648H12.62V14.389H11.427v4.466a1.22,1.22,0,0,1-.365.314.6.6,0,0,1-.329.129.26.26,0,0,1-.235-.091.468.468,0,0,1-.079-.3V14.389ZM14.7,19.817l0,0a1.649,1.649,0,0,0,.508.4,1.367,1.367,0,0,0,.617.129,1,1,0,0,0,.812-.337,1.479,1.479,0,0,0,.275-.962V15.792a1.718,1.718,0,0,0-.3-1.091,1.034,1.034,0,0,0-.853-.377,1.245,1.245,0,0,0-.55.142,1.861,1.861,0,0,0-.509.4V12.313H13.511v7.959H14.7v-.455Zm-10.092-7.5v1.154H5.988v6.8H7.325v-6.8h1.39V12.313Zm10.654,7.115a.694.694,0,0,1-.274-.065.967.967,0,0,1-.288-.208V15.494a.978.978,0,0,1,.247-.183.586.586,0,0,1,.249-.052.442.442,0,0,1,.367.157.637.637,0,0,1,.131.442v3.037a.623.623,0,0,1-.105.4A.364.364,0,0,1,15.267,19.427Zm4.534-2.87H18.765v-.6a.779.779,0,0,1,.119-.518.477.477,0,0,1,.407-.169.469.469,0,0,1,.392.169.893.893,0,0,1,.118.518v.6ZM12.817,8.934a2.009,2.009,0,0,1-1.4-.492,1.718,1.718,0,0,1-.523-1.311V3.779a1.472,1.472,0,0,1,.537-1.193,2.235,2.235,0,0,1,1.455-.455,1.942,1.942,0,0,1,1.362.481,1.568,1.568,0,0,1,.525,1.207V7.156a1.626,1.626,0,0,1-.525,1.3A1.988,1.988,0,0,1,12.817,8.934Zm0-5.673a.55.55,0,0,0-.4.131.4.4,0,0,0-.158.336V7.26a.57.57,0,0,0,.146.4.522.522,0,0,0,.407.157.582.582,0,0,0,.431-.157.536.536,0,0,0,.158-.4V3.728a.4.4,0,0,0-.158-.336A.665.665,0,0,0,12.817,3.262Zm3.957,5.6a.844.844,0,0,1-.7-.286,1.345,1.345,0,0,1-.235-.869V2.3h1.336V7.26a.48.48,0,0,0,.094.337.325.325,0,0,0,.261.1.789.789,0,0,0,.381-.144,1.7,1.7,0,0,0,.4-.348V2.3h1.338V8.766H18.319V8.053a2.869,2.869,0,0,1-.76.608A1.8,1.8,0,0,1,16.774,8.857ZM9.042,8.766H7.537V5.3L5.74,0H7.259l.969,3.507h.107L9.264,0h1.521L9.042,5.129V8.765Z" transform="translate(27.08 28)" fill="#f5a055"/>
    <g id="Oval" transform="translate(0.08)" fill="none" stroke="#f5a055" stroke-miterlimit="10" stroke-width="3.5">
      <circle cx="39.5" cy="39.5" r="39.5" stroke="none"/>
      <circle cx="39.5" cy="39.5" r="37.75" fill="none"/>
    </g>
  </g>
</svg>
